<?xml version="1.0" encoding="UTF-8" standalone="no"?>
<svg
   enable-background="new 0 0 425.2 425.2"
   xml:space="preserve"
   height="65.688"
   viewBox="0 0 238.75399 65.688002"
   width="238.75"
   version="1.1"
   y="0px"
   x="0px"
   id="svg68"
   sodipodi:docname="logo_touraine.svg"
   inkscape:version="1.1.2 (0a00cf5339, 2022-02-04)"
   xmlns:inkscape="http://www.inkscape.org/namespaces/inkscape"
   xmlns:sodipodi="http://sodipodi.sourceforge.net/DTD/sodipodi-0.dtd"
   xmlns="http://www.w3.org/2000/svg"
   xmlns:svg="http://www.w3.org/2000/svg"><defs
     id="defs72" /><sodipodi:namedview
     id="namedview70"
     pagecolor="#ffffff"
     bordercolor="#666666"
     borderopacity="1.0"
     inkscape:pageshadow="2"
     inkscape:pageopacity="0.0"
     inkscape:pagecheckerboard="0"
     showgrid="false"
     inkscape:zoom="16.796165"
     inkscape:cx="29.858007"
     inkscape:cy="16.908622"
     inkscape:window-width="1600"
     inkscape:window-height="831"
     inkscape:window-x="0"
     inkscape:window-y="0"
     inkscape:window-maximized="1"
     inkscape:current-layer="svg68" /><g
     transform="translate(-92.39,-194.30038)"
     id="g16"><path
       style="fill:#84868a"
       d="m 168.44,226.7 c -1.669,0 -3.102,-0.556 -4.299,-1.664 -1.198,-1.109 -1.796,-2.449 -1.796,-4.02 0,-1.492 0.515,-2.725 1.546,-3.696 1.031,-0.971 3.126,-1.899 6.288,-2.783 1.982,-0.549 3.317,-1.021 4.005,-1.413 v -1.59 c 0,-1.551 -0.432,-2.802 -1.296,-3.755 -0.864,-0.952 -2.022,-1.428 -3.475,-1.428 -1.316,0 -2.484,0.412 -3.504,1.237 -1.021,0.825 -1.738,1.944 -2.15,3.357 l -1.09,-0.295 c 0.432,-1.982 1.37,-3.573 2.812,-4.771 1.443,-1.197 3.136,-1.796 5.08,-1.796 2.297,0 4.157,0.692 5.581,2.076 1.423,1.384 2.135,3.303 2.135,5.757 v 9.159 c 0,1.296 0.083,2.175 0.25,2.636 0.167,0.461 0.486,0.691 0.957,0.691 0.314,0 0.569,-0.132 0.766,-0.397 0.196,-0.265 0.422,-0.819 0.677,-1.663 h 1.031 c -0.099,1.335 -0.516,2.396 -1.251,3.18 -0.736,0.785 -1.704,1.179 -2.901,1.179 -1.748,0 -2.955,-1.012 -3.622,-3.033 -1.06,1.158 -2.002,1.953 -2.827,2.385 -0.825,0.432 -1.798,0.647 -2.917,0.647 z m 5.743,-5.007 v -7.244 c -0.609,0.255 -1.492,0.579 -2.65,0.972 -2.14,0.727 -3.509,1.448 -4.108,2.164 -0.599,0.717 -0.898,1.684 -0.898,2.901 0,1.06 0.319,1.978 0.957,2.753 0.638,0.776 1.399,1.163 2.282,1.163 0.805,0 1.649,-0.26 2.533,-0.78 0.882,-0.519 1.511,-1.163 1.884,-1.929 z"
       id="path2" /><path
       style="fill:#84868a"
       d="m 204.78,204.08 h 1.001 v 17.931 c 0,1.18 0.25,1.976 0.751,2.388 0.5,0.414 1.477,0.62 2.93,0.62 v 1.001 l -7.774,0.412 v -3.917 h -0.118 c -2.14,2.788 -4.633,4.183 -7.479,4.183 -2.042,0 -3.716,-0.684 -5.021,-2.05 -1.306,-1.366 -1.958,-3.082 -1.958,-5.146 v -10.94 c 0,-1.101 -0.275,-1.848 -0.825,-2.241 -0.55,-0.393 -1.542,-0.59 -2.974,-0.59 v -1.001 l 6.861,-0.648 h 1.031 v 15.255 c 0,1.492 0.437,2.67 1.311,3.533 0.873,0.864 2.046,1.296 3.519,1.296 2.042,0 3.926,-1.168 5.654,-3.504 v -11.538 c 0,-1.475 -0.226,-2.4 -0.677,-2.773 -0.452,-0.374 -1.61,-0.58 -3.475,-0.62 v -1.001 z"
       id="path4" /><path
       style="fill:#84868a"
       d="m 219.12,204.08 v 4.624 c 1.963,-1.708 3.489,-2.905 4.579,-3.593 1.09,-0.687 1.998,-1.031 2.725,-1.031 1.354,0 2.66,0.56 3.916,1.679 l -1.619,3.799 c -2.278,-1.256 -3.966,-1.885 -5.065,-1.885 -1.218,0 -2.729,0.864 -4.535,2.591 v 11.745 c 0,1.181 0.245,1.977 0.736,2.39 0.49,0.414 1.433,0.62 2.827,0.62 v 1.001 h -11.279 v -1.001 c 1.492,0 2.468,-0.236 2.93,-0.709 0.461,-0.473 0.691,-1.604 0.691,-3.397 v -11.668 c 0,-1.477 -0.25,-2.431 -0.75,-2.865 -0.501,-0.434 -1.723,-0.65 -3.667,-0.65 v -1.001 l 7.48,-0.648 h 1.031 z"
       id="path6" /><path
       style="fill:#84868a"
       d="m 255.87,215.42 c 0,3.22 -1.115,5.904 -3.343,8.055 -2.229,2.149 -5.012,3.225 -8.349,3.225 -3.338,0 -6.121,-1.075 -8.349,-3.225 -2.229,-2.15 -3.343,-4.835 -3.343,-8.055 0,-3.259 1.109,-5.963 3.328,-8.113 2.218,-2.15 5.006,-3.225 8.363,-3.225 3.357,0 6.145,1.075 8.363,3.225 2.218,2.15 3.33,4.854 3.33,8.113 z m -4.447,0.015 c 0,-3.047 -0.647,-5.504 -1.943,-7.373 -1.296,-1.869 -3.062,-2.802 -5.301,-2.802 -2.239,0 -4.005,0.915 -5.301,2.743 -1.296,1.828 -1.943,4.306 -1.943,7.432 0,3.067 0.643,5.516 1.929,7.344 1.285,1.829 3.058,2.742 5.315,2.742 2.257,0 4.029,-0.924 5.315,-2.772 1.285,-1.849 1.929,-4.287 1.929,-7.314 z"
       id="path8" /><path
       style="fill:#84868a"
       d="m 280.2,204.08 h 1.001 v 17.931 c 0,1.18 0.251,1.976 0.751,2.388 0.501,0.414 1.478,0.62 2.931,0.62 v 1.001 l -7.774,0.412 v -3.917 h -0.118 c -2.14,2.788 -4.634,4.183 -7.479,4.183 -2.042,0 -3.716,-0.684 -5.021,-2.05 -1.305,-1.366 -1.958,-3.082 -1.958,-5.146 v -10.94 c 0,-1.101 -0.275,-1.848 -0.824,-2.241 -0.55,-0.393 -1.542,-0.59 -2.975,-0.59 v -1.001 l 6.861,-0.648 h 1.031 v 15.255 c 0,1.492 0.437,2.67 1.31,3.533 0.874,0.864 2.047,1.296 3.52,1.296 2.042,0 3.927,-1.168 5.654,-3.504 v -11.538 c 0,-1.475 -0.226,-2.4 -0.678,-2.773 -0.451,-0.374 -1.609,-0.58 -3.475,-0.62 v -1.001 z"
       id="path10" /><path
       style="fill:#84868a"
       d="m 287.97,204.73 h 17.905 v 1.031 l -13.562,19.23 h 6.647 c 2.235,0 3.854,-0.432 4.854,-1.296 1.001,-0.864 1.53,-2.258 1.589,-4.182 h 1.031 l -0.56,6.508 h -18.465 v -1.03 l 13.562,-19.23 H 295 c -1.824,0 -3.325,0.466 -4.502,1.399 -1.177,0.933 -1.862,2.194 -2.059,3.784 h -1.031 z"
       id="path12" /><path
       style="fill:#84868a"
       d="m 330.14,220.54 v 1.561 c -1.296,1.649 -2.616,2.827 -3.961,3.534 -1.345,0.707 -2.96,1.061 -4.845,1.061 -3.338,0 -6.091,-1.046 -8.26,-3.137 -2.17,-2.091 -3.255,-4.746 -3.255,-7.966 0,-3.239 1.036,-5.968 3.107,-8.187 2.071,-2.218 4.608,-3.328 7.612,-3.328 2.474,0 4.633,0.834 6.479,2.503 1.846,1.669 2.769,3.662 2.769,5.979 v 0.441 H 314.09 v 0.294 c 0,2.356 0.358,4.403 1.075,6.14 0.716,1.737 1.762,3.098 3.136,4.079 1.374,0.981 2.808,1.473 4.3,1.473 1.394,0 2.586,-0.29 3.578,-0.869 0.991,-0.579 2.311,-1.771 3.961,-3.578 z m -16.05,-8.57 h 11.632 v -0.412 c 0,-1.904 -0.544,-3.416 -1.634,-4.535 -1.09,-1.119 -2.449,-1.679 -4.079,-1.679 -1.728,0 -3.116,0.589 -4.167,1.767 -1.05,1.179 -1.634,2.798 -1.752,4.859 z"
       id="path14" /></g><g
     transform="translate(-92.39,-177)"
     id="g20"><path
       style="fill:#47773b"
       d="m144.03 215.6s-10.353 4.95-25.128 0c0 0-15.544-6.088-24.383 0 0 0-0.557 22.793 24.551 24.761 0 0 23.268-0.13 24.96-25.075"
       id="path18" /></g><g
     transform="translate(-92.39,-177)"
     id="g28"><path
       style="fill:#a8abb1"
       d="m138.28 202.13c-0.397 0-0.789-0.178-1.05-0.516-2.972-3.86-5.175-6.545-9.887-8.002l-1.34-0.28v-15.33h4.244c0.732 0 1.325 0.768 1.325 1.5 0 0.73-0.593 1.5-1.325 1.5h-2.244v10.397c6 1.93 8.655 5.437 11.094 8.605 0.445 0.58 0.457 1.411-0.121 1.857-0.242 0.185-0.407 0.275-0.689 0.275z"
       id="path26" /></g><g
     transform="translate(-92.39,-177)"
     id="g36"><path
       style="fill:#fff"
       d="m124.13 224.38c0.449 1.307 1.628 1.35 1.628 1.35 2.389-1.867 5.359-4.76 7.594-7.253 3.136-3.498 5.082-6 5.082-6l-1.438-0.272-5.603 6.172-7.263 6.003z"
       id="path34" /></g><g
     transform="translate(-92.39,-177)"
     id="g44"><path
       style="fill:#28522a"
       d="m124.13 224.45c-2.25 1.679-4.43 3.153-6.344 4.361-2.084 1.302-3.861 2.314-5.12 2.979-0.51 0.276-0.484 0.265-0.806 0.426-0.074 0.037-0.322 0.168-0.387 0.195-0.85 0.361-0.337 1.237-0.337 1.237l0.223 0.441 0.273 0.537s0.494 0.771 1.164 0.319c0.317-0.212 0.758-0.442 1.263-0.752 1.271-0.763 3.043-1.906 5.109-3.354 1.994-1.419 4.265-3.146 6.59-5.104-0.532-0.114-1.498-0.936-1.628-1.285z"
       id="path42" /></g><g
     id="g6"
     transform="matrix(0.04794249,0,0,0.04794249,8.6766695,11.264139)"
     style="fill:#333333;fill-opacity:1"><path
       d="m 583.19,154.01 h -59.195 c -3.9258,0 -7.6914,1.5586 -10.465,4.332 -2.7773,2.7773 -4.3359,6.5391 -4.3359,10.465 v 44.398 h -29.598 v -44.398 c 0,-3.9258 -1.5586,-7.6875 -4.3359,-10.465 -2.7734,-2.7734 -6.5391,-4.332 -10.465,-4.332 h -59.195 c -3.9258,0 -7.6914,1.5586 -10.465,4.332 -2.7773,2.7773 -4.3359,6.5391 -4.3359,10.465 v 44.398 h -29.598 v -44.398 c 0,-3.9258 -1.5586,-7.6875 -4.3359,-10.465 -2.7734,-2.7734 -6.5391,-4.332 -10.465,-4.332 h -59.199 c -3.9219,0 -7.6875,1.5586 -10.465,4.332 -2.7734,2.7773 -4.332,6.5391 -4.332,10.465 v 44.398 h -29.598 v -44.398 c 0,-3.9258 -1.5625,-7.6875 -4.3359,-10.465 -2.7773,-2.7734 -6.5391,-4.332 -10.465,-4.332 h -59.199 c -3.9258,0 -7.6875,1.5586 -10.465,4.332 -2.7734,2.7773 -4.332,6.5391 -4.332,10.465 v 118.39 c 0,3.9258 1.5586,7.6914 4.332,10.465 2.7773,2.7773 6.5391,4.3359 10.465,4.3359 h 414.38 c 3.9258,0 7.6914,-1.5586 10.465,-4.3359 2.7773,-2.7734 4.3359,-6.5391 4.3359,-10.465 v -118.39 c 0,-3.9258 -1.5586,-7.6875 -4.3359,-10.465 -2.7734,-2.7734 -6.5391,-4.332 -10.465,-4.332 z"
       id="path2-1"
       style="fill:#333333;fill-opacity:1" /><path
       d="m 213.21,331.6 v 251.59 c 0,3.9258 1.5586,7.6914 4.3359,10.465 2.7734,2.7773 6.5391,4.3359 10.465,4.3359 h 44.398 v -103.59 c 0,-37.012 19.746,-71.211 51.797,-89.719 32.055,-18.504 71.543,-18.504 103.6,0 32.051,18.508 51.797,52.707 51.797,89.719 v 103.6 h 44.398 v -0.004 c 3.9258,0 7.6875,-1.5586 10.465,-4.3359 2.7734,-2.7734 4.332,-6.5391 4.332,-10.465 v -251.59 z"
       id="path4-2"
       style="fill:#333333;fill-opacity:1" /></g><g
     transform="translate(-92.39,-177)"
     id="g24"><path
       style="fill:#609747"
       d="m93.618 214.71s10.352 4.95 25.128 0c0 0 15.544-6.088 24.383 0 0 0 0.557 22.793-24.551 24.761 0 0-23.269-0.13-24.96-25.075"
       id="path22" /></g><g
     transform="translate(-92.39,-177)"
     id="g32"><path
       style="fill:#a8abb1"
       d="m119.37 241.69c-14.555 0-25.98-11.702-25.98-26.085 0-10.34 6.61-19.854 15.61-23.96v-10.643h-2.596c-0.732 0-1.324-0.77-1.324-1.5 0-0.732 0.592-1.5 1.324-1.5h4.596v15.407l-0.917 0.336c-8.594 3.492-14.413 12.277-14.413 21.859 0 12.923 10.63 23.436 23.723 23.436 12.837 0 23.271-10.513 23.271-23.436 0-1.575-0.222-3.13-0.687-4.886-0.188-0.708 0.231-1.432 0.938-1.62 0.709-0.183 1.431 0.235 1.619 0.942 0.525 1.984 0.768 3.752 0.768 5.563-0.001 14.384-11.633 26.087-25.932 26.087z"
       id="path30" /></g><g
     transform="translate(-92.39,-177)"
     id="g40"><path
       style="fill:#28522a"
       d="m124.13 224.45c2.627-1.959 5.353-4.198 7.885-6.663 4.738-4.539 8.698-9.831 11.018-14.157 0.557-1.093 1.068-2.098 1.52-2.986 0.396-0.913 0.678-1.734 0.943-2.4 0.514-1.338 0.807-2.103 0.807-2.103s-0.25 0.779-0.687 2.142c-0.227 0.68-0.464 1.52-0.81 2.459-0.405 0.918-0.862 1.955-1.359 3.085-0.124 0.284-0.251 0.573-0.381 0.868-0.147 0.287-0.314 0.569-0.475 0.863-0.325 0.584-0.661 1.189-1.006 1.808-0.649 1.272-1.526 2.497-2.39 3.794-1.732 2.591-3.873 5.157-6.119 7.628-3.404 3.698-6.002 5.838-7.319 6.949 4.876 0.726 22.826 1.305 20.864-30.117 0.001-0.001-30.684 7.023-22.491 28.83z"
       id="path38" /></g><text
     xml:space="preserve"
     style="font-style:normal;font-weight:normal;font-size:20.0134px;line-height:1.25;font-family:sans-serif;fill:#333333;fill-opacity:1;stroke:none;stroke-width:0.536077"
     x="91.828552"
     y="59.194412"
     id="text114696"><tspan
       sodipodi:role="line"
       id="tspan114694"
       style="font-style:normal;font-variant:normal;font-weight:bold;font-stretch:normal;font-size:20.0134px;font-family:'DejaVu Serif';-inkscape-font-specification:'DejaVu Serif Bold';fill:#333333;fill-opacity:1;stroke-width:0.536077"
       x="91.828552"
       y="59.194412">TOURAINE</tspan></text></svg>
