<?xml version="1.0" standalone="no"?>
<!DOCTYPE svg PUBLIC "-//W3C//DTD SVG 20010904//EN"
 "http://www.w3.org/TR/2001/REC-SVG-20010904/DTD/svg10.dtd">
<svg version="1.0" xmlns="http://www.w3.org/2000/svg"
 width="196.000000pt" height="122.000000pt" viewBox="0 0 196.000000 122.000000"
 preserveAspectRatio="xMidYMid meet">
<metadata>
Created by potrace 1.16, written by Peter Selinger 2001-2019
</metadata>
<g transform="translate(0.000000,122.000000) scale(0.100000,-0.100000)"
fill="#000000" stroke="none">
<path d="M923 1152 c-26 -32 -102 -124 -168 -206 -66 -82 -228 -282 -360 -445
-305 -376 -385 -477 -385 -485 0 -3 437 -6 970 -6 534 0 970 3 970 6 0 5 -99
128 -609 759 -58 72 -161 199 -229 283 -68 83 -127 152 -132 152 -5 0 -31 -26
-57 -58z m434 -429 c209 -258 416 -514 461 -570 45 -56 87 -105 92 -108 6 -3
10 -10 10 -16 0 -5 -361 -9 -945 -9 l-945 0 203 249 c111 137 324 400 472 584
149 185 271 336 272 336 1 1 172 -209 380 -466z"/>
<path d="M691 646 c-157 -193 -286 -357 -289 -364 -3 -9 128 -12 577 -12 320
0 581 2 581 5 0 5 -64 85 -425 535 -64 80 -127 155 -138 167 l-22 21 -284
-352z m519 39 c110 -137 228 -282 260 -321 33 -40 60 -74 60 -76 0 -2 -247 -4
-550 -3 -302 0 -550 2 -550 5 1 3 89 113 196 245 107 132 230 283 272 337 72
90 78 95 94 80 9 -10 107 -129 218 -267z"/>
<path d="M801 614 c-89 -124 -165 -232 -168 -240 -4 -12 50 -14 341 -14 190 0
346 3 346 8 0 4 -48 72 -106 151 -57 80 -133 184 -167 233 -34 48 -67 88 -73
88 -5 0 -83 -102 -173 -226z m221 141 c19 -27 87 -123 151 -211 64 -89 117
-163 117 -165 0 -2 -142 -4 -315 -4 -207 0 -314 3 -311 10 10 28 311 434 316
427 4 -4 22 -29 42 -57z"/>
<path d="M364 153 c-16 -43 -30 -81 -32 -85 -2 -4 15 -8 37 -8 30 0 41 4 41
15 0 11 11 15 40 15 29 0 40 -4 40 -15 0 -11 11 -15 40 -15 l40 0 -14 32 c-8
18 -25 57 -37 85 l-24 53 -51 0 -51 0 -29 -77z m106 -15 c0 -5 -9 -8 -20 -8
-20 0 -25 15 -13 45 5 15 8 14 19 -6 7 -13 13 -27 14 -31z"/>
<path d="M690 145 l0 -85 35 0 c33 0 35 2 35 35 0 33 2 35 35 35 33 0 35 -2
35 -35 0 -33 2 -35 35 -35 l35 0 0 85 0 85 -35 0 c-32 0 -35 -2 -35 -30 0 -28
-3 -30 -35 -30 -32 0 -35 2 -35 30 0 28 -3 30 -35 30 l-35 0 0 -85z"/>
<path d="M1060 145 l0 -85 35 0 c33 0 35 2 35 35 0 24 5 35 14 35 8 0 24 -16
36 -35 19 -30 27 -35 61 -35 36 0 39 2 29 19 -5 11 -21 28 -34 39 l-25 19 24
11 c31 14 34 57 6 72 -11 5 -56 10 -100 10 l-81 0 0 -85z m130 35 c0 -5 -13
-10 -30 -10 -16 0 -30 5 -30 10 0 6 14 10 30 10 17 0 30 -4 30 -10z"/>
<path d="M1410 145 l0 -85 78 0 c84 0 122 16 122 50 0 10 -9 25 -20 33 -18 12
-18 15 -5 20 21 9 19 44 -4 57 -11 5 -54 10 -95 10 l-76 0 0 -85z m120 35 c0
-5 -11 -10 -25 -10 -14 0 -25 5 -25 10 0 6 11 10 25 10 14 0 25 -4 25 -10z
m10 -65 c0 -10 -10 -15 -30 -15 -20 0 -30 5 -30 15 0 10 10 15 30 15 20 0 30
-5 30 -15z"/>
</g>
</svg>
